<svg width="69" height="68" viewBox="0 0 69 68" fill="none" xmlns="http://www.w3.org/2000/svg">
<g id="Message">
<circle id="Ellipse" cx="34.2988" cy="34" r="34" fill="#FFB342"/>
<g id="Icon">
<path id="Vector" d="M34.2988 20C28.778 20 24.2988 24.4274 24.2988 29.8803C24.2988 36.1546 30.9655 46.0977 33.4134 49.532C33.515 49.677 33.6482 49.7949 33.8021 49.8763C33.956 49.9576 34.1262 50 34.2988 50C34.4715 50 34.6417 49.9576 34.7956 49.8763C34.9495 49.7949 35.0826 49.677 35.1842 49.532C37.6322 46.0991 44.2988 36.1597 44.2988 29.8803C44.2988 24.4274 39.8197 20 34.2988 20Z" stroke="#1C2752" stroke-width="2" stroke-linecap="round" stroke-linejoin="round"/>
<path id="Vector_2" d="M34.2988 35C36.508 35 38.2988 33.2091 38.2988 31C38.2988 28.7909 36.508 27 34.2988 27C32.0897 27 30.2988 28.7909 30.2988 31C30.2988 33.2091 32.0897 35 34.2988 35Z" stroke="#1C2752" stroke-width="2" stroke-linecap="round" stroke-linejoin="round"/>
</g>
</g>
</svg>
